<?xml version="1.0" encoding="UTF-8" standalone="no" ?>
<!DOCTYPE svg PUBLIC "-//W3C//DTD SVG 1.1//EN" "http://www.w3.org/Graphics/SVG/1.1/DTD/svg11.dtd">
<svg xmlns="http://www.w3.org/2000/svg" xmlns:xlink="http://www.w3.org/1999/xlink" version="1.1" width="1080" height="1080" viewBox="0 0 1080 1080" xml:space="preserve">
<desc>Created with Fabric.js 5.2.4</desc>
<defs>
</defs>
<rect x="0" y="0" width="100%" height="100%" fill="transparent"></rect>
<g transform="matrix(1 0 0 1 540 540)" id="61669de2-e28e-4961-9593-db81b6d271b1"  >
<rect style="stroke: none; stroke-width: 1; stroke-dasharray: none; stroke-linecap: butt; stroke-dashoffset: 0; stroke-linejoin: miter; stroke-miterlimit: 4; fill: rgb(107,67,67); fill-rule: nonzero; opacity: 1; visibility: hidden;" vector-effect="non-scaling-stroke"  x="-540" y="-540" rx="0" ry="0" width="1080" height="1080" />
</g>
<g transform="matrix(1 0 0 1 540 540)" id="51112743-27fb-4f97-89b4-6458b669fe3c"  >
</g>
<g transform="matrix(1.15 -0.18 0.18 1.15 212.42 511.6)" clip-path="url(#CLIPPATH_111)"  >
<clipPath id="CLIPPATH_111" >
	<path transform="matrix(0.99 0.16 -0.16 0.99 282.75 153.96) translate(-540, -540)" id="__lottie_element_4" clip-path="url(#undefined)" d="M 0 0 L 1080 0 L 1080 1080 L 0 1080 z" stroke-linecap="round" />
</clipPath>
<path style="stroke: none; stroke-width: 1; stroke-dasharray: none; stroke-linecap: butt; stroke-dashoffset: 0; stroke-linejoin: miter; stroke-miterlimit: 4; fill: rgb(225,225,225); fill-rule: nonzero; opacity: 1;" vector-effect="non-scaling-stroke"  transform=" translate(0, 0)" d="M 0 -69 C 30.630449295043945 -69 55.5 -38.08110046386719 55.5 0 C 55.5 38.08110046386719 30.630449295043945 69 0 69 C -30.630449295043945 69 -55.5 38.08110046386719 -55.5 0 C -55.5 -38.08110046386719 -30.630449295043945 -69 0 -69 z" stroke-linecap="round" />
</g>
<g transform="matrix(1.15 -0.18 0.18 1.15 212.42 511.6)" clip-path="url(#CLIPPATH_112)"  >
<clipPath id="CLIPPATH_112" >
	<path transform="matrix(0.99 0.16 -0.16 0.99 282.75 153.96) translate(-540, -540)" id="__lottie_element_4" clip-path="url(#undefined)" d="M 0 0 L 1080 0 L 1080 1080 L 0 1080 z" stroke-linecap="round" />
</clipPath>
<path style="stroke: rgb(255,255,255); stroke-width: 0; stroke-dasharray: none; stroke-linecap: butt; stroke-dashoffset: 0; stroke-linejoin: miter; stroke-miterlimit: 4; fill: rgb(0,0,0); fill-opacity: 0; fill-rule: nonzero; opacity: 1;" vector-effect="non-scaling-stroke"  transform=" translate(0, 0)" d="M 0 -69 C 30.630449295043945 -69 55.5 -38.08110046386719 55.5 0 C 55.5 38.08110046386719 30.630449295043945 69 0 69 C -30.630449295043945 69 -55.5 38.08110046386719 -55.5 0 C -55.5 -38.08110046386719 -30.630449295043945 -69 0 -69 z" stroke-linecap="round" />
</g>
<g transform="matrix(1.15 -0.18 0.18 1.15 867.58 408.61)" clip-path="url(#CLIPPATH_113)"  >
<clipPath id="CLIPPATH_113" >
	<path transform="matrix(0.99 0.16 -0.16 0.99 -286.25 153.96) translate(-540, -540)" id="__lottie_element_4" clip-path="url(#undefined)" d="M 0 0 L 1080 0 L 1080 1080 L 0 1080 z" stroke-linecap="round" />
</clipPath>
<path style="stroke: none; stroke-width: 1; stroke-dasharray: none; stroke-linecap: butt; stroke-dashoffset: 0; stroke-linejoin: miter; stroke-miterlimit: 4; fill: rgb(225,225,225); fill-rule: nonzero; opacity: 1;" vector-effect="non-scaling-stroke"  transform=" translate(0, 0)" d="M 0 -69 C 30.630449295043945 -69 55.5 -38.08110046386719 55.5 0 C 55.5 38.08110046386719 30.630449295043945 69 0 69 C -30.630449295043945 69 -55.5 38.08110046386719 -55.5 0 C -55.5 -38.08110046386719 -30.630449295043945 -69 0 -69 z" stroke-linecap="round" />
</g>
<g transform="matrix(1.15 -0.18 0.18 1.15 867.58 408.61)" clip-path="url(#CLIPPATH_114)"  >
<clipPath id="CLIPPATH_114" >
	<path transform="matrix(0.99 0.16 -0.16 0.99 -286.25 153.96) translate(-540, -540)" id="__lottie_element_4" clip-path="url(#undefined)" d="M 0 0 L 1080 0 L 1080 1080 L 0 1080 z" stroke-linecap="round" />
</clipPath>
<path style="stroke: rgb(255,255,255); stroke-width: 0; stroke-dasharray: none; stroke-linecap: butt; stroke-dashoffset: 0; stroke-linejoin: miter; stroke-miterlimit: 4; fill: rgb(0,0,0); fill-opacity: 0; fill-rule: nonzero; opacity: 1;" vector-effect="non-scaling-stroke"  transform=" translate(0, 0)" d="M 0 -69 C 30.630449295043945 -69 55.5 -38.08110046386719 55.5 0 C 55.5 38.08110046386719 30.630449295043945 69 0 69 C -30.630449295043945 69 -55.5 38.08110046386719 -55.5 0 C -55.5 -38.08110046386719 -30.630449295043945 -69 0 -69 z" stroke-linecap="round" />
</g>
<g transform="matrix(1.17 0 0 1.17 574.35 771.41)" clip-path="url(#CLIPPATH_115)"  >
<linearGradient id="SVGID___lottie_element_15_82" gradientUnits="userSpaceOnUse" gradientTransform="matrix(1 0 0 1 0 0)"  x1="-166" y1="148" x2="86" y2="146">
<stop offset="0%" style="stop-color:rgb(235,244,252);stop-opacity: 1"/>
<stop offset="65%" style="stop-color:rgb(221,225,230);stop-opacity: 1"/>
<stop offset="100%" style="stop-color:rgb(207,207,207);stop-opacity: 1"/>
</linearGradient>
<clipPath id="CLIPPATH_115" >
	<path transform="matrix(1 0 0 1 -7.3 -114.73) translate(-540, -540)" id="__lottie_element_4" clip-path="url(#undefined)" d="M 0 0 L 1080 0 L 1080 1080 L 0 1080 z" stroke-linecap="round" />
</clipPath>
<path style="stroke: none; stroke-width: 1; stroke-dasharray: none; stroke-linecap: butt; stroke-dashoffset: 0; stroke-linejoin: miter; stroke-miterlimit: 4; fill: url(#SVGID___lottie_element_15_82); fill-rule: nonzero; opacity: 1;" vector-effect="non-scaling-stroke"  transform=" translate(20.7, -175.32)" d="M -27 31 C -39.374000549316406 31 -164 20 -179.67799377441406 102.947998046875 C -187.85699462890625 146.2209930419922 -182 234 -132.2689971923828 283.3590087890625 C -93.71399688720703 321.625 -38.150001525878906 319.7080078125 -25 320 C -11.456000328063965 320.3009948730469 53.75400161743164 322.5979919433594 91.48300170898438 284.49700927734375 C 137.322998046875 238.20599365234375 148 146 137.74200439453125 101.15499877929688 C 122.56099700927734 34.78900146484375 24 31 -27 31 z" stroke-linecap="round" />
</g>
<g transform="matrix(1.17 0 0 1.17 574.35 771.41)" clip-path="url(#CLIPPATH_116)"  >
<clipPath id="CLIPPATH_116" >
	<path transform="matrix(1 0 0 1 -7.3 -114.73) translate(-540, -540)" id="__lottie_element_4" clip-path="url(#undefined)" d="M 0 0 L 1080 0 L 1080 1080 L 0 1080 z" stroke-linecap="round" />
</clipPath>
<path style="stroke: rgb(255,255,255); stroke-width: 0; stroke-dasharray: none; stroke-linecap: butt; stroke-dashoffset: 0; stroke-linejoin: miter; stroke-miterlimit: 4; fill: rgb(0,0,0); fill-opacity: 0; fill-rule: nonzero; opacity: 1;" vector-effect="non-scaling-stroke"  transform=" translate(20.7, -175.32)" d="M -27 31 C -39.374000549316406 31 -164 20 -179.67799377441406 102.947998046875 C -187.85699462890625 146.2209930419922 -182 234 -132.2689971923828 283.3590087890625 C -93.71399688720703 321.625 -38.150001525878906 319.7080078125 -25 320 C -11.456000328063965 320.3009948730469 53.75400161743164 322.5979919433594 91.48300170898438 284.49700927734375 C 137.322998046875 238.20599365234375 148 146 137.74200439453125 101.15499877929688 C 122.56099700927734 34.78900146484375 24 31 -27 31 z" stroke-linecap="round" />
</g>
<g transform="matrix(1.17 0 0 1.17 571.09 646.9)" clip-path="url(#CLIPPATH_117)"  >
<clipPath id="CLIPPATH_117" >
	<path transform="matrix(1 0 0 1 -4.5 -7.91) translate(-540, -540)" id="__lottie_element_4" clip-path="url(#undefined)" d="M 0 0 L 1080 0 L 1080 1080 L 0 1080 z" stroke-linecap="round" />
</clipPath>
<path style="stroke: none; stroke-width: 1; stroke-dasharray: none; stroke-linecap: butt; stroke-dashoffset: 0; stroke-linejoin: miter; stroke-miterlimit: 4; fill: rgb(208,208,208); fill-rule: nonzero; opacity: 1;" vector-effect="non-scaling-stroke"  transform=" translate(0, 0)" d="M 0 -32.5 C 62.64065170288086 -32.5 113.5 -17.936750411987305 113.5 0 C 113.5 17.936750411987305 62.64065170288086 32.5 0 32.5 C -62.64065170288086 32.5 -113.5 17.936750411987305 -113.5 0 C -113.5 -17.936750411987305 -62.64065170288086 -32.5 0 -32.5 z" stroke-linecap="round" />
</g>
<g transform="matrix(1.17 0 0 1.17 571.09 646.9)" clip-path="url(#CLIPPATH_118)"  >
<clipPath id="CLIPPATH_118" >
	<path transform="matrix(1 0 0 1 -4.5 -7.91) translate(-540, -540)" id="__lottie_element_4" clip-path="url(#undefined)" d="M 0 0 L 1080 0 L 1080 1080 L 0 1080 z" stroke-linecap="round" />
</clipPath>
<path style="stroke: rgb(147,147,147); stroke-width: 1; stroke-dasharray: none; stroke-linecap: butt; stroke-dashoffset: 0; stroke-linejoin: miter; stroke-miterlimit: 4; fill: rgb(0,0,0); fill-opacity: 0; fill-rule: nonzero; opacity: 1;" vector-effect="non-scaling-stroke"  transform=" translate(0, 0)" d="M 0 -32.5 C 62.64065170288086 -32.5 113.5 -17.936750411987305 113.5 0 C 113.5 17.936750411987305 62.64065170288086 32.5 0 32.5 C -62.64065170288086 32.5 -113.5 17.936750411987305 -113.5 0 C -113.5 -17.936750411987305 -62.64065170288086 -32.5 0 -32.5 z" stroke-linecap="round" />
</g>
<g transform="matrix(1.15 -0.18 0.18 1.15 543.64 402.13)" clip-path="url(#CLIPPATH_119)"  >
<linearGradient id="SVGID___lottie_element_18_83" gradientUnits="userSpaceOnUse" gradientTransform="matrix(1 0 0 1 0 0)"  x1="-296" y1="-60" x2="198" y2="-58">
<stop offset="0%" style="stop-color:rgb(235,244,252);stop-opacity: 1"/>
<stop offset="65%" style="stop-color:rgb(221,225,230);stop-opacity: 1"/>
<stop offset="100%" style="stop-color:rgb(207,207,207);stop-opacity: 1"/>
</linearGradient>
<clipPath id="CLIPPATH_119" >
	<path transform="matrix(0.99 0.16 -0.16 0.99 -12.57 202.61) translate(-540, -540)" id="__lottie_element_4" clip-path="url(#undefined)" d="M 0 0 L 1080 0 L 1080 1080 L 0 1080 z" stroke-linecap="round" />
</clipPath>
<path style="stroke: none; stroke-width: 1; stroke-dasharray: none; stroke-linecap: butt; stroke-dashoffset: 0; stroke-linejoin: miter; stroke-miterlimit: 4; fill: url(#SVGID___lottie_element_18_83); fill-rule: nonzero; opacity: 1;" vector-effect="non-scaling-stroke"  transform=" translate(19.72, 166.41)" d="M 242 -226 C 124 -408 -206 -374 -284 -218 C -312.42498779296875 -161.1490020751953 -360 -6 -178 14 C -143.68099975585938 17.770999908447266 140 16 140 16 C 140 16 214.56300354003906 11.970999717712402 250.406005859375 -40.457000732421875 C 277.4010009765625 -79.94400024414062 284.02099609375 -161.18800354003906 242 -226 z" stroke-linecap="round" />
</g>
<g transform="matrix(1.15 -0.18 0.18 1.15 543.64 402.13)" clip-path="url(#CLIPPATH_120)"  >
<clipPath id="CLIPPATH_120" >
	<path transform="matrix(0.99 0.16 -0.16 0.99 -12.57 202.61) translate(-540, -540)" id="__lottie_element_4" clip-path="url(#undefined)" d="M 0 0 L 1080 0 L 1080 1080 L 0 1080 z" stroke-linecap="round" />
</clipPath>
<path style="stroke: rgb(255,255,255); stroke-width: 0; stroke-dasharray: none; stroke-linecap: butt; stroke-dashoffset: 0; stroke-linejoin: miter; stroke-miterlimit: 4; fill: rgb(0,0,0); fill-opacity: 0; fill-rule: nonzero; opacity: 1;" vector-effect="non-scaling-stroke"  transform=" translate(19.72, 166.41)" d="M 242 -226 C 124 -408 -206 -374 -284 -218 C -312.42498779296875 -161.1490020751953 -360 -6 -178 14 C -143.68099975585938 17.770999908447266 140 16 140 16 C 140 16 214.56300354003906 11.970999717712402 250.406005859375 -40.457000732421875 C 277.4010009765625 -79.94400024414062 284.02099609375 -161.18800354003906 242 -226 z" stroke-linecap="round" />
</g>
<g transform="matrix(1.18 -0.19 0.18 1.15 585.08 434.45)" clip-path="url(#CLIPPATH_121)"  >
<clipPath id="CLIPPATH_121" >
	<path transform="matrix(0.96 0.16 -0.15 0.99 -42.21 169.69) translate(-540, -540)" id="__lottie_element_4" clip-path="url(#undefined)" d="M 0 0 L 1080 0 L 1080 1080 L 0 1080 z" stroke-linecap="round" />
</clipPath>
<path style="stroke: none; stroke-width: 1; stroke-dasharray: none; stroke-linecap: butt; stroke-dashoffset: 0; stroke-linejoin: miter; stroke-miterlimit: 4; fill: rgb(33,33,33); fill-rule: nonzero; opacity: 1;" vector-effect="non-scaling-stroke"  transform=" translate(0, 0)" d="M 220.5 -17 C 220.5 -17 220.5 17 220.5 17 C 220.5 52.32160186767578 191.82159423828125 81 156.5 81 C 156.5 81 -156.5 81 -156.5 81 C -191.82159423828125 81 -220.5 52.32160186767578 -220.5 17 C -220.5 17 -220.5 -17 -220.5 -17 C -220.5 -52.32160186767578 -191.82159423828125 -81 -156.5 -81 C -156.5 -81 156.5 -81 156.5 -81 C 191.82159423828125 -81 220.5 -52.32160186767578 220.5 -17 z" stroke-linecap="round" />
</g>
<g transform="matrix(1.18 -0.19 0.18 1.15 585.08 434.45)" clip-path="url(#CLIPPATH_122)"  >
<clipPath id="CLIPPATH_122" >
	<path transform="matrix(0.96 0.16 -0.15 0.99 -42.21 169.69) translate(-540, -540)" id="__lottie_element_4" clip-path="url(#undefined)" d="M 0 0 L 1080 0 L 1080 1080 L 0 1080 z" stroke-linecap="round" />
</clipPath>
<path style="stroke: rgb(255,255,255); stroke-width: 0; stroke-dasharray: none; stroke-linecap: butt; stroke-dashoffset: 0; stroke-linejoin: miter; stroke-miterlimit: 4; fill: rgb(0,0,0); fill-opacity: 0; fill-rule: nonzero; opacity: 1;" vector-effect="non-scaling-stroke"  transform=" translate(0, 0)" d="M 220.5 -17 C 220.5 -17 220.5 17 220.5 17 C 220.5 52.32160186767578 191.82159423828125 81 156.5 81 C 156.5 81 -156.5 81 -156.5 81 C -191.82159423828125 81 -220.5 52.32160186767578 -220.5 17 C -220.5 17 -220.5 -17 -220.5 -17 C -220.5 -52.32160186767578 -191.82159423828125 -81 -156.5 -81 C -156.5 -81 156.5 -81 156.5 -81 C 191.82159423828125 -81 220.5 -52.32160186767578 220.5 -17 z" stroke-linecap="round" />
</g>
<g transform="matrix(1.15 -0.18 0.18 1.15 697.21 415.71)" clip-path="url(#CLIPPATH_123)"  >
<clipPath id="CLIPPATH_123" >
	<path transform="matrix(0.99 0.16 -0.16 0.99 -140.91 170.63) translate(-540, -540)" id="__lottie_element_4" clip-path="url(#undefined)" d="M 0 0 L 1080 0 L 1080 1080 L 0 1080 z" stroke-linecap="round" />
</clipPath>
<path style="stroke: none; stroke-width: 1; stroke-dasharray: none; stroke-linecap: butt; stroke-dashoffset: 0; stroke-linejoin: miter; stroke-miterlimit: 4; fill: rgb(58,58,58); fill-rule: nonzero; opacity: 1;" vector-effect="non-scaling-stroke"  transform=" translate(-81.03, 119.94)" d="M 25.965255737304688 -199.31362915039062 C 24.58225440979004 -193.7826385498047 32.46525573730469 -94.06363677978516 -48.03474426269531 -40.06363296508789 C -48.03474426269531 -40.06363296508789 158 -40.5 158 -40.5 C 158 -40.5 207 -38.5 210 -121 C 211.50799560546875 -162.4759979248047 195.75 -198.5 152.25 -199.5 C 108.75 -200.5 25.965255737304688 -198.81362915039062 25.965255737304688 -199.31362915039062 z" stroke-linecap="round" />
</g>
<g transform="matrix(1.15 -0.18 0.18 1.15 697.21 415.71)" clip-path="url(#CLIPPATH_124)"  >
<clipPath id="CLIPPATH_124" >
	<path transform="matrix(0.99 0.16 -0.16 0.99 -140.91 170.63) translate(-540, -540)" id="__lottie_element_4" clip-path="url(#undefined)" d="M 0 0 L 1080 0 L 1080 1080 L 0 1080 z" stroke-linecap="round" />
</clipPath>
<path style="stroke: rgb(255,255,255); stroke-width: 0; stroke-dasharray: none; stroke-linecap: butt; stroke-dashoffset: 0; stroke-linejoin: miter; stroke-miterlimit: 4; fill: rgb(0,0,0); fill-opacity: 0; fill-rule: nonzero; opacity: 1;" vector-effect="non-scaling-stroke"  transform=" translate(-81.03, 119.94)" d="M 25.965255737304688 -199.31362915039062 C 24.58225440979004 -193.7826385498047 32.46525573730469 -94.06363677978516 -48.03474426269531 -40.06363296508789 C -48.03474426269531 -40.06363296508789 158 -40.5 158 -40.5 C 158 -40.5 207 -38.5 210 -121 C 211.50799560546875 -162.4759979248047 195.75 -198.5 152.25 -199.5 C 108.75 -200.5 25.965255737304688 -198.81362915039062 25.965255737304688 -199.31362915039062 z" stroke-linecap="round" />
</g>
<g transform="matrix(1.15 -0.18 0.18 1.15 421.88 458.33)" clip-path="url(#CLIPPATH_125)"  >
<clipPath id="CLIPPATH_125" >
	<path transform="matrix(0.99 0.16 -0.16 0.99 98.12 171.19) translate(-540, -540)" id="__lottie_element_4" clip-path="url(#undefined)" d="M 0 0 L 1080 0 L 1080 1080 L 0 1080 z" stroke-linecap="round" />
</clipPath>
<path style="stroke: none; stroke-width: 1; stroke-dasharray: none; stroke-linecap: butt; stroke-dashoffset: 0; stroke-linejoin: miter; stroke-miterlimit: 4; fill: rgb(254,240,138); fill-rule: nonzero; opacity: 1;" vector-effect="non-scaling-stroke"  transform=" translate(0, 0)" d="M 18 -28.5 C 18 -28.5 18 28.5 18 28.5 C 18 38.434200286865234 9.934200286865234 46.5 0 46.5 C 0 46.5 0 46.5 0 46.5 C -9.934200286865234 46.5 -18 38.434200286865234 -18 28.5 C -18 28.5 -18 -28.5 -18 -28.5 C -18 -38.434200286865234 -9.934200286865234 -46.5 0 -46.5 C 0 -46.5 0 -46.5 0 -46.5 C 9.934200286865234 -46.5 18 -38.434200286865234 18 -28.5 z" stroke-linecap="round" />
</g>
<g transform="matrix(1.15 -0.18 0.18 1.15 421.88 458.33)" clip-path="url(#CLIPPATH_126)"  >
<clipPath id="CLIPPATH_126" >
	<path transform="matrix(0.99 0.16 -0.16 0.99 98.12 171.19) translate(-540, -540)" id="__lottie_element_4" clip-path="url(#undefined)" d="M 0 0 L 1080 0 L 1080 1080 L 0 1080 z" stroke-linecap="round" />
</clipPath>
<path style="stroke: rgb(255,255,255); stroke-width: 0; stroke-dasharray: none; stroke-linecap: butt; stroke-dashoffset: 0; stroke-linejoin: miter; stroke-miterlimit: 4; fill: rgb(0,0,0); fill-opacity: 0; fill-rule: nonzero; opacity: 1;" vector-effect="non-scaling-stroke"  transform=" translate(0, 0)" d="M 18 -28.5 C 18 -28.5 18 28.5 18 28.5 C 18 38.434200286865234 9.934200286865234 46.5 0 46.5 C 0 46.5 0 46.5 0 46.5 C -9.934200286865234 46.5 -18 38.434200286865234 -18 28.5 C -18 28.5 -18 -28.5 -18 -28.5 C -18 -38.434200286865234 -9.934200286865234 -46.5 0 -46.5 C 0 -46.5 0 -46.5 0 -46.5 C 9.934200286865234 -46.5 18 -38.434200286865234 18 -28.5 z" stroke-linecap="round" />
</g>
<g transform="matrix(1.15 -0.18 0.18 1.15 741.97 408.02)" clip-path="url(#CLIPPATH_127)"  >
<clipPath id="CLIPPATH_127" >
	<path transform="matrix(0.99 0.16 -0.16 0.99 -179.88 171.19) translate(-540, -540)" id="__lottie_element_4" clip-path="url(#undefined)" d="M 0 0 L 1080 0 L 1080 1080 L 0 1080 z" stroke-linecap="round" />
</clipPath>
<path style="stroke: none; stroke-width: 1; stroke-dasharray: none; stroke-linecap: butt; stroke-dashoffset: 0; stroke-linejoin: miter; stroke-miterlimit: 4; fill: rgb(254,240,138); fill-rule: nonzero; opacity: 1;" vector-effect="non-scaling-stroke"  transform=" translate(0, 0)" d="M 18 -28.5 C 18 -28.5 18 28.5 18 28.5 C 18 38.434200286865234 9.934200286865234 46.5 0 46.5 C 0 46.5 0 46.5 0 46.5 C -9.934200286865234 46.5 -18 38.434200286865234 -18 28.5 C -18 28.5 -18 -28.5 -18 -28.5 C -18 -38.434200286865234 -9.934200286865234 -46.5 0 -46.5 C 0 -46.5 0 -46.5 0 -46.5 C 9.934200286865234 -46.5 18 -38.434200286865234 18 -28.5 z" stroke-linecap="round" />
</g>
<g transform="matrix(1.15 -0.18 0.18 1.15 741.97 408.02)" clip-path="url(#CLIPPATH_128)"  >
<clipPath id="CLIPPATH_128" >
	<path transform="matrix(0.99 0.16 -0.16 0.99 -179.88 171.19) translate(-540, -540)" id="__lottie_element_4" clip-path="url(#undefined)" d="M 0 0 L 1080 0 L 1080 1080 L 0 1080 z" stroke-linecap="round" />
</clipPath>
<path style="stroke: rgb(255,255,255); stroke-width: 0; stroke-dasharray: none; stroke-linecap: butt; stroke-dashoffset: 0; stroke-linejoin: miter; stroke-miterlimit: 4; fill: rgb(0,0,0); fill-opacity: 0; fill-rule: nonzero; opacity: 1;" vector-effect="non-scaling-stroke"  transform=" translate(0, 0)" d="M 18 -28.5 C 18 -28.5 18 28.5 18 28.5 C 18 38.434200286865234 9.934200286865234 46.5 0 46.5 C 0 46.5 0 46.5 0 46.5 C -9.934200286865234 46.5 -18 38.434200286865234 -18 28.5 C -18 28.5 -18 -28.5 -18 -28.5 C -18 -38.434200286865234 -9.934200286865234 -46.5 0 -46.5 C 0 -46.5 0 -46.5 0 -46.5 C 9.934200286865234 -46.5 18 -38.434200286865234 18 -28.5 z" stroke-linecap="round" />
</g>
<g transform="matrix(1.15 -0.2 0.2 1.15 334.34 810.44)" clip-path="url(#CLIPPATH_129)"  >
<linearGradient id="SVGID___lottie_element_36_84" gradientUnits="userSpaceOnUse" gradientTransform="matrix(1 0 0 1 0 0)"  x1="-271.5360107421875" y1="175.1510009765625" x2="-227.43800354003906" y2="178.62100219726562">
<stop offset="0%" style="stop-color:rgb(235,244,252);stop-opacity: 1"/>
<stop offset="65%" style="stop-color:rgb(221,225,230);stop-opacity: 1"/>
<stop offset="100%" style="stop-color:rgb(207,207,207);stop-opacity: 1"/>
</linearGradient>
<clipPath id="CLIPPATH_129" >
	<path transform="matrix(0.99 0.17 -0.17 0.99 220.77 -112.61) translate(-540, -540)" id="__lottie_element_4" clip-path="url(#undefined)" d="M 0 0 L 1080 0 L 1080 1080 L 0 1080 z" stroke-linecap="round" />
</clipPath>
<path style="stroke: none; stroke-width: 1; stroke-dasharray: none; stroke-linecap: butt; stroke-dashoffset: 0; stroke-linejoin: miter; stroke-miterlimit: 4; fill: url(#SVGID___lottie_element_36_84); fill-rule: nonzero; opacity: 1;" vector-effect="non-scaling-stroke"  transform=" translate(241.71, -181.05)" d="M -242.5 83.5 C -301.5 156.5 -281 244 -273 271 C -268.50299072265625 286.177001953125 -248.98599243164062 291.4230041503906 -238.26499938964844 285.2829895019531 C -229.91299438476562 280.5 -229.4550018310547 266.25299072265625 -229 261 C -220 157 -205 108 -201 97 C -199.13699340820312 91.87699890136719 -201.5330047607422 79.1520004272461 -210.35499572753906 75.63600158691406 C -220.4759979248047 71.60199737548828 -237.6300048828125 77.4749984741211 -242.5 83.5 z" stroke-linecap="round" />
</g>
<g transform="matrix(1.15 -0.2 0.2 1.15 334.34 810.44)" clip-path="url(#CLIPPATH_130)"  >
<clipPath id="CLIPPATH_130" >
	<path transform="matrix(0.99 0.17 -0.17 0.99 220.77 -112.61) translate(-540, -540)" id="__lottie_element_4" clip-path="url(#undefined)" d="M 0 0 L 1080 0 L 1080 1080 L 0 1080 z" stroke-linecap="round" />
</clipPath>
<path style="stroke: rgb(255,255,255); stroke-width: 0; stroke-dasharray: none; stroke-linecap: butt; stroke-dashoffset: 0; stroke-linejoin: miter; stroke-miterlimit: 4; fill: rgb(0,0,0); fill-opacity: 0; fill-rule: nonzero; opacity: 1;" vector-effect="non-scaling-stroke"  transform=" translate(241.71, -181.05)" d="M -242.5 83.5 C -301.5 156.5 -281 244 -273 271 C -268.50299072265625 286.177001953125 -248.98599243164062 291.4230041503906 -238.26499938964844 285.2829895019531 C -229.91299438476562 280.5 -229.4550018310547 266.25299072265625 -229 261 C -220 157 -205 108 -201 97 C -199.13699340820312 91.87699890136719 -201.5330047607422 79.1520004272461 -210.35499572753906 75.63600158691406 C -220.4759979248047 71.60199737548828 -237.6300048828125 77.4749984741211 -242.5 83.5 z" stroke-linecap="round" />
</g>
<g transform="matrix(-1.14 -0.23 0.23 -1.14 848.16 595.16)" clip-path="url(#CLIPPATH_131)"  >
<linearGradient id="SVGID___lottie_element_40_85" gradientUnits="userSpaceOnUse" gradientTransform="matrix(1 0 0 1 0 0)"  x1="-235.68800354003906" y1="173.87399291992188" x2="-283.1210021972656" y2="160.69900512695312">
<stop offset="0%" style="stop-color:rgb(235,244,252);stop-opacity: 1"/>
<stop offset="65%" style="stop-color:rgb(221,225,230);stop-opacity: 1"/>
<stop offset="100%" style="stop-color:rgb(207,207,207);stop-opacity: 1"/>
</linearGradient>
<clipPath id="CLIPPATH_131" >
	<path transform="matrix(-0.98 0.2 -0.2 -0.98 230.09 -83.99) translate(-540, -540)" id="__lottie_element_4" clip-path="url(#undefined)" d="M 0 0 L 1080 0 L 1080 1080 L 0 1080 z" stroke-linecap="round" />
</clipPath>
<path style="stroke: none; stroke-width: 1; stroke-dasharray: none; stroke-linecap: butt; stroke-dashoffset: 0; stroke-linejoin: miter; stroke-miterlimit: 4; fill: url(#SVGID___lottie_element_40_85); fill-rule: nonzero; opacity: 1;" vector-effect="non-scaling-stroke"  transform=" translate(241.71, -181.05)" d="M -242.5 83.5 C -301.5 156.5 -281 244 -273 271 C -268.50299072265625 286.177001953125 -248.98599243164062 291.4230041503906 -238.26499938964844 285.2829895019531 C -229.91299438476562 280.5 -229.4550018310547 266.25299072265625 -229 261 C -220 157 -205 108 -201 97 C -199.13699340820312 91.87699890136719 -201.5330047607422 79.1520004272461 -210.35499572753906 75.63600158691406 C -220.4759979248047 71.60199737548828 -237.6300048828125 77.4749984741211 -242.5 83.5 z" stroke-linecap="round" />
</g>
<g transform="matrix(-1.14 -0.23 0.23 -1.14 848.16 595.16)" clip-path="url(#CLIPPATH_132)"  >
<clipPath id="CLIPPATH_132" >
	<path transform="matrix(-0.98 0.2 -0.2 -0.98 230.09 -83.99) translate(-540, -540)" id="__lottie_element_4" clip-path="url(#undefined)" d="M 0 0 L 1080 0 L 1080 1080 L 0 1080 z" stroke-linecap="round" />
</clipPath>
<path style="stroke: rgb(255,255,255); stroke-width: 0; stroke-dasharray: none; stroke-linecap: butt; stroke-dashoffset: 0; stroke-linejoin: miter; stroke-miterlimit: 4; fill: rgb(0,0,0); fill-opacity: 0; fill-rule: nonzero; opacity: 1;" vector-effect="non-scaling-stroke"  transform=" translate(241.71, -181.05)" d="M -242.5 83.5 C -301.5 156.5 -281 244 -273 271 C -268.50299072265625 286.177001953125 -248.98599243164062 291.4230041503906 -238.26499938964844 285.2829895019531 C -229.91299438476562 280.5 -229.4550018310547 266.25299072265625 -229 261 C -220 157 -205 108 -201 97 C -199.13699340820312 91.87699890136719 -201.5330047607422 79.1520004272461 -210.35499572753906 75.63600158691406 C -220.4759979248047 71.60199737548828 -237.6300048828125 77.4749984741211 -242.5 83.5 z" stroke-linecap="round" />
</g>
</svg>